# xmcd
#
# Track frame offsets: 
#        150
#        16862
#        33574
#        58771
#        73059
#        95491
#        109401
#        126957
#        148949
#        165529
#        184195
#
# Disc length: 2689 seconds
#
# Revision: 0
# Processed by: cddbd v1.5.2PL0 Copyright (c) Steve Scherf et al.
# Submitted via: ExactAudioCopy v1.3
#
DISCID=a20a7f0b
DTITLE=Burnside Exploration feat. Beverly Davis - Achieve
DYEAR=2009
DGENRE=Blues
TTITLE0=Achieve
TTITLE1=Achieve (remix)
TTITLE2=Slow Blues
TTITLE3=Burnside Shuffle
TTITLE4=Howlin' for My Darling
TTITLE5=I Got the Blues
TTITLE6=I Gotta Try
TTITLE7=I'll Play the Blues for You
TTITLE8=Intro in E
TTITLE9=Promise
TTITLE10=Rollin' and Tumblin'
EXTD=
EXTT0=
EXTT1=
EXTT2=
EXTT3=
EXTT4=
EXTT5=
EXTT6=
EXTT7=
EXTT8=
EXTT9=
EXTT10=
PLAYORDER=
